<svg xmlns="http://www.w3.org/2000/svg" viewBox="0 0 64 64" id="setting"><path d="M62.5 43.4h-3.4V43c-.3-1.3-.9-2.6-1.6-3.8l-.2-.3 2.4-2.4c.2-.2.2-.5 0-.7l-3.6-3.6c-.1-.1-.2-.2-.4-.2-.1 0-.3.1-.3.1L53 34.6l-.3-.2c-1.2-.7-2.4-1.2-3.8-1.6l-.4-.1v-3.4c0-.3-.2-.5-.5-.5h-5.1c-.3 0-.5.2-.5.5v3.4l-.4.1c-1.3.3-2.6.9-3.8 1.6l-.2.2-2.4-2.4c-.1-.1-.2-.1-.4-.1-.1 0-.3.1-.4.1l-3.6 3.6c-.2.2-.2.5 0 .7l2.4 2.4-.2.3c-.7 1.2-1.2 2.4-1.6 3.8l-.1.4h-3.4c-.3 0-.5.2-.5.5V49c0 .3.2.5.5.5h3.4l.1.4c.3 1.3.9 2.6 1.6 3.8l.2.3-2.4 2.4c-.2.2-.2.5 0 .7l3.6 3.6c.1.1.2.1.4.1.1 0 .3 0 .4-.1l2.4-2.4.3.2c1.2.7 2.4 1.2 3.8 1.6l.4.1v3.4c0 .3.2.5.5.5h5c.3 0 .5-.2.5-.5v-3.4l.4-.1c1.3-.3 2.6-.9 3.8-1.5l.3-.2 2.4 2.4c.1.1.2.1.3.1.1 0 .3 0 .3-.1l3.6-3.6c.2-.2.2-.5 0-.7L57.3 54l.2-.3c.7-1.2 1.2-2.4 1.6-3.8l.1-.4h3.4c.3 0 .5-.2.5-.5v-5.1c-.1-.3-.3-.5-.6-.5zm-17 11.4c-4.6 0-8.3-3.7-8.3-8.3s3.7-8.3 8.3-8.3c4.6 0 8.3 3.7 8.3 8.3s-3.7 8.3-8.3 8.3zM29.8 29.7c.1 0 .2 0 .3-.1.1-.1.2-.2.2-.3l1.1-4.3c.1-.3-.1-.5-.4-.6l-2.8-.7v-.4c0-1.1-.2-2.2-.5-3.3l-.1-.4 2.4-1.5c.2-.1.3-.4.2-.7L28 13.9c-.1-.1-.2-.2-.3-.2h-.1c-.1 0-.2 0-.3.1l-2.4 1.5-.3-.3c-.8-.8-1.7-1.4-2.7-2l-.3-.2.7-2.7c0-.1 0-.3-.1-.4-.1-.1-.2-.2-.3-.2l-4.3-1.1h-.1c-.1 0-.2 0-.2.1-.1.1-.2.2-.2.3l-.7 2.8H16c-1.1 0-2.2.2-3.3.5l-.4.1L11 9.6c-.1-.2-.3-.2-.4-.2-.1 0-.2 0-.3.1l-3.8 2.2c-.1.1-.2.2-.2.3v.4l1.5 2.4-.3.3c-.8.8-1.4 1.7-2 2.6l-.2.3-2.8-.7h-.1c-.1 0-.2 0-.3.1-.1.1-.2.2-.2.3L1 22c-.1.3.1.5.4.6l2.8.7v.4c0 1.1.2 2.2.5 3.3l.1.4-2.4 1.5c-.1.1-.2.2-.2.3 0 .1 0 .3.1.4l2.2 3.8c.1.2.3.2.4.2.1 0 .2 0 .3-.1L7.6 32l.3.3c.8.8 1.7 1.4 2.6 2l.3.2-.8 2.6c0 .1 0 .3.1.4.1.1.2.2.3.2l4.3 1.1h.1c.1 0 .2 0 .2-.1.1-.1.2-.2.2-.3l.7-2.8h.4c1.1 0 2.2-.2 3.3-.5l.4-.1 1.5 2.4c.1.1.2.2.4.2.1 0 .2 0 .3-.1l3.8-2.3c.2-.1.3-.4.2-.7l-1.5-2.4.3-.3c.8-.8 1.4-1.7 2-2.6l.2-.3 2.8.7c-.3.1-.2.1-.2.1zm-7.5-4.6c-.4 1.6-1.4 3-2.9 3.9-1 .6-2.1.9-3.3.9-.5 0-1-.1-1.6-.2-1.7-.4-3-1.4-3.9-2.9-.8-1.5-1-3.2-.6-4.8.4-1.6 1.4-3 2.9-3.9 1-.6 2.1-.9 3.3-.9 2.2 0 4.3 1.2 5.5 3.1.8 1.4 1.1 3.2.6 4.8zm12.8-7.7c0 .1.1.3.2.3s.2.1.3.1h.1l2.2-.5.2.3c.3.6.8 1.2 1.3 1.7l.2.3-1.2 1.9c-.1.1-.1.2-.1.4 0 .1.1.2.2.3l3.4 2c.1 0 .2.1.2.1h.1c.1 0 .2-.1.3-.2l1.2-1.9.4.1c.7.2 1.4.3 2.1.3h.4l.5 2.2c0 .1.1.3.2.3s.2.1.3.1h.1l3.8-.9c.3-.1.4-.3.4-.6l-.5-2.2.3-.2c.6-.4 1.2-.8 1.8-1.3l.3-.2 1.9 1.2c.1 0 .2.1.3.1h.1c.1 0 .2-.1.3-.2l2-3.4c.1-.1.1-.2.1-.4 0-.1-.1-.2-.2-.3l-1.9-1.2.1-.4c.2-.7.3-1.4.3-2.1v-.4l2.2-.5c.1 0 .2-.1.3-.2.1-.1.1-.2.1-.4l-.9-3.8c0-.2-.2-.4-.5-.4h-.1l-2.2.5-.2-.3c-.4-.6-.8-1.2-1.3-1.8l-.2-.3 1.2-1.9c.1-.1.1-.2.1-.4-.2-.1-.3-.2-.4-.2l-3.3-2c-.1-.1-.2-.1-.3-.1h-.1c-.1 0-.2.1-.3.2L49.7 3l-.4-.1c-.7-.2-1.4-.3-2.2-.3h-.4L46.2.4c0-.2-.2-.4-.5-.4h-.1l-3.8.9c-.3.1-.4.3-.4.6l.5 2.2-.3.2c-.6.3-1.2.8-1.7 1.3l-.3.3-1.9-1.2c-.1 0-.2-.1-.3-.1h-.1c-.1 0-.2.1-.3.2l-2 3.4v.3c0 .1.1.2.2.3l1.9 1.2v.4c-.2.7-.3 1.4-.3 2.1v.4l-2.3.5c-.3.1-.4.3-.4.6l1 3.8zm7.5-7.4c.7-1.1 1.8-1.9 3-2.2.4-.1.8-.1 1.2-.1.9 0 1.8.2 2.5.7 1.1.7 1.9 1.8 2.2 3v.1c.3 1.2.1 2.5-.6 3.6s-1.8 1.9-3 2.2c-.4.1-.8.1-1.2.1-2.3 0-4.2-1.5-4.8-3.7-.2-1.2 0-2.6.7-3.7z"></path></svg>